<svg width="35" height="35" viewBox="0 0 35 35" fill="none" xmlns="http://www.w3.org/2000/svg">
<rect x="0.13739" y="0.29007" width="34.5344" height="34.5344" rx="4" fill="#F2F4F7"/>
<path d="M22.1183 15.6718H12.6908L15.932 12.8435M12.6908 19.4427H22.1183L18.8771 22.271" stroke="#817F7F" stroke-width="1.5" stroke-linecap="round" stroke-linejoin="round"/>
<path d="M26.8321 17.5572C26.8321 22.0014 26.8321 24.2234 25.4509 25.6036C24.0717 26.9847 21.8487 26.9847 17.4046 26.9847C12.9605 26.9847 10.7384 26.9847 9.35727 25.6036C7.97709 24.2244 7.97709 22.0014 7.97709 17.5572C7.97709 13.1131 7.97709 10.8911 9.35727 9.50994C10.7393 8.12976 12.9605 8.12976 17.4046 8.12976C21.8487 8.12976 24.0707 8.12976 25.4509 9.50994C26.3692 10.4282 26.6765 11.7188 26.7802 13.7862" stroke="#817F7F" stroke-width="1.5" stroke-linecap="round"/>
</svg>
